<?xml version="1.0" encoding="UTF-8" standalone="no"?>
<!-- Created with Inkscape (http://www.inkscape.org/) -->

<svg
   sodipodi:docname="poster-janstroke.svg"
   inkscape:version="1.2.2 (732a01da63, 2022-12-09)"
   xml:space="preserve"
   id="svg5"
   version="1.1"
   viewBox="0 0 210 297"
   height="297mm"
   width="210mm"
   xmlns:inkscape="http://www.inkscape.org/namespaces/inkscape"
   xmlns:sodipodi="http://sodipodi.sourceforge.net/DTD/sodipodi-0.dtd"
   xmlns="http://www.w3.org/2000/svg"
   xmlns:svg="http://www.w3.org/2000/svg"><sodipodi:namedview
     id="namedview7"
     pagecolor="#ffffff"
     bordercolor="#000000"
     borderopacity="0.25"
     inkscape:showpageshadow="2"
     inkscape:pageopacity="0.0"
     inkscape:pagecheckerboard="0"
     inkscape:deskcolor="#d1d1d1"
     inkscape:document-units="mm"
     showgrid="false"
     showguides="true"
     inkscape:zoom="0.53564326"
     inkscape:cx="626.34971"
     inkscape:cy="582.47723"
     inkscape:window-width="1920"
     inkscape:window-height="1009"
     inkscape:window-x="-8"
     inkscape:window-y="-8"
     inkscape:window-maximized="1"
     inkscape:current-layer="layer1" /><defs
     id="defs2"><rect
       x="366.26399"
       y="54.089618"
       width="404.89943"
       height="349.2644"
       id="rect15475" /><rect
       x="305.9927"
       y="780.43592"
       width="315.2652"
       height="219.44931"
       id="rect13432" /></defs><g
     inkscape:label="Calque 1"
     inkscape:groupmode="layer"
     id="layer1"><g
       id="g1088"
       transform="matrix(0.264583 0 0 0.264583 3.87947 -10.6747)"
       style="stroke:#000000;stroke-opacity:1;stroke-width:0.99700304;stroke-dasharray:none"><g
         transform="rotate(-45)"
         id="g1053"
         style="stroke:#000000;stroke-opacity:1;stroke-width:0.99700304;stroke-dasharray:none"><path
           d="m -385.08904,403.47382 c 43.00072,19.59533 66.48123,66.55635 56.35707,112.71413 -8.18778,37.32952 -37.34362,66.48536 -74.67314,74.67313"
           style="fill:none;stroke:#000000;stroke-width:0.99700304;stroke-linecap:round;stroke-linejoin:round;stroke-miterlimit:10;stroke-opacity:1;stroke-dasharray:none"
           id="path1051" /></g><g
         transform="rotate(-45)"
         id="g1057"
         style="stroke:#000000;stroke-opacity:1;stroke-width:0.99700304;stroke-dasharray:none"><path
           d="m -187.83931,600.72355 c -19.59533,-43.00073 -66.55635,-66.48123 -112.71413,-56.35707 -37.32952,8.18778 -66.48536,37.34362 -74.67314,74.67314"
           style="fill:none;stroke:#000000;stroke-width:0.99700304;stroke-linecap:round;stroke-linejoin:round;stroke-miterlimit:10;stroke-opacity:1;stroke-dasharray:none"
           id="path1055" /></g><g
         transform="rotate(-45)"
         id="g1061"
         style="stroke:#000000;stroke-opacity:1;stroke-width:0.99700304;stroke-dasharray:none"><path
           d="m -385.08904,403.47382 c 19.59534,43.00072 66.55635,66.48123 112.71413,56.35706 37.32952,-8.18778 66.48536,-37.34361 74.67314,-74.67313"
           style="fill:none;stroke:#000000;stroke-width:0.99700304;stroke-linecap:round;stroke-linejoin:round;stroke-miterlimit:10;stroke-opacity:1;stroke-dasharray:none"
           id="path1059" /></g><g
         transform="matrix(0.707107 -0.707107 0.707107 0.707107 1.89441e-10 -0.772709)"
         id="g1065"
         style="stroke:#000000;stroke-width:0.997003;stroke-dasharray:none;stroke-opacity:1"><path
           d="m -169.52324,413.33628 c -37.32952,8.18778 -66.48536,37.34361 -74.67313,74.67314 -10.12416,46.15777 13.35635,93.11878 56.35706,112.71413"
           style="fill:none;stroke:#000000;stroke-width:0.997003;stroke-linecap:round;stroke-linejoin:round;stroke-miterlimit:10;stroke-dasharray:none;stroke-opacity:1"
           id="path1063" /></g><g
         transform="rotate(-45)"
         id="g1069"
         style="stroke:#000000;stroke-opacity:1;stroke-width:0.99700304;stroke-dasharray:none"><path
           d="m -75.125175,149.86702 c 40.61505,-8.61422 82.982998,0.0635 116.940934,23.95173 84.681601,59.57049 76.273261,177.78117 -4.226802,201.47653 -60.325036,17.75681 -116.381677,-38.29983 -98.624866,-98.62486 l -84.535601,84.5356"
           style="fill:none;stroke:#000000;stroke-width:0.99700304;stroke-linecap:round;stroke-linejoin:round;stroke-miterlimit:10;stroke-opacity:1;stroke-dasharray:none"
           id="path1067" /></g></g><g
       id="g1215"
       transform="matrix(0.210642 0 0 0.210642 70.4721 52.6271)"
       style="stroke:#000000;stroke-width:0.997003;stroke-dasharray:none;stroke-opacity:1"><g
         transform="rotate(-45)"
         id="g1198"
         style="stroke:#000000;stroke-width:0.997003;stroke-dasharray:none;stroke-opacity:1"><path
           d="M -51.912229,80.090762 C 61.468215,193.47121 -69.034321,359.58835 -56.13903,506.99556 c 147.407206,12.89529 313.52436,-117.60724 426.9048,-4.2268"
           style="fill:none;stroke:#000000;stroke-width:0.997003;stroke-linecap:round;stroke-linejoin:round;stroke-miterlimit:10;stroke-dasharray:none;stroke-opacity:1"
           id="path1196" /></g><g
         transform="rotate(-45)"
         id="g1202"
         style="stroke:#000000;stroke-width:0.997003;stroke-dasharray:none;stroke-opacity:1"><path
           d="m -483.04383,511.22236 c 118.94862,118.94862 292.68046,-66.81605 426.9048,-4.2268 62.589254,134.22434 -123.17542,307.95618 -4.226802,426.9048"
           style="fill:none;stroke:#000000;stroke-width:0.997003;stroke-linecap:round;stroke-linejoin:round;stroke-miterlimit:10;stroke-dasharray:none;stroke-opacity:1"
           id="path1200" /></g></g><g
       id="g9379"
       transform="matrix(0.264583 0 0 0.264583 -264.05 -34.2485)"><path
         id="path9278"
         style="fill:none;stroke:#000000;stroke-width:1.79661;stroke-linecap:round;stroke-linejoin:round;stroke-miterlimit:10"
         d="m 1170.5143,1147.944 v 0 m 59.6632,-178.98964 v 0 m -119.3264,0 v 0 m 143.1917,35.79794 v 0 m -167.057,0 v 0 m 83.5285,107.3937 v 0 m 83.5285,0 v 0 m -167.057,0 v 0 m 83.5285,-262.51804 v 0 m -95.4611,286.38334 v 0 m 95.4611,-95.4611 v 0 m 95.4611,95.4611 v 0 m -95.4611,95.4611 v 0 m 0,-83.5284 v 11.9326 m -59.6632,-190.92224 h 119.3264 m -143.1917,35.79794 h 167.057 m -167.057,107.3938 167.057,-10e-5 m -83.5285,0 V 849.62796 m 0,381.84444 c 52.7217,0 95.4611,-42.7394 95.4611,-95.4611 0,-52.7217 -42.7394,-95.4611 -95.4611,-95.4611 -52.7217,0 -95.4611,42.7394 -95.4611,95.4611 0,52.7217 42.7394,95.4611 95.4611,95.4611 z"
         sodipodi:nodetypes="ccccccccccccccccccccccccccccccccccccsssss" /><path
         d="M 0,1115.5046 H 398.50464 V -0.30835 H 0 Z"
         style="fill:none;stroke:#ff0000;stroke-width:0;stroke-linecap:round;stroke-linejoin:round;stroke-miterlimit:10"
         id="path9094" /><g
         transform="rotate(-45)"
         id="g9180" /><g
         transform="rotate(-45)"
         id="g9184" /><g
         transform="rotate(-45)"
         id="g9188" /><g
         transform="rotate(-45)"
         id="g9192" /><g
         transform="rotate(-45)"
         id="g9196" /><g
         transform="rotate(-45)"
         id="g9200" /><g
         transform="matrix(3 0 0 3 340.829 515.648)"
         style="fill:#000000"
         id="g9240"><g
           aria-label="7"
           id="text9238"
           style="font-size:9.96265px" /></g></g><path
       style="fill:none;stroke:#4f442e;stroke-width:0.373634"
       d="m 140.68188,212.02127 h 1.00502 m -4.3551,1.25014 0.335,1.66687 5.02514,-1.25013 m 1.67504,0 3.35009,1.964 3.01509,0.52701 3.6851,1.67612 m -6.36518,-4.16713 h 2.01005 m -13.73537,0.4167 0.67001,0.83343 m -3.35007,-0.41672 -2.68008,4.08529 -2.68007,3.83229 m 14.74039,-6.66744 1.34004,0.41672 -0.67003,-0.83342 m -9.04522,5.41728 0.54904,-2.06041 0.79098,-1.27331 V 215.355 m 2.34508,3.75041 1.34002,-0.83342 c -0.55212,1.04984 -2.47628,1.72606 -1.926,-0.29592 0.54448,-2.00059 3.33127,-2.25579 4.60608,-2.62107 m -7.7052,0.4167 h 0.33499 m 6.36518,0 -1.34003,2.08358 m 3.01507,-1.66686 -3.69416,4.66398 -2.25778,1.13522 -2.42327,2.11837 2.68007,-5.00058 m 6.70017,-2.91699 -3.68509,5.6951 0.67001,-0.27782 m 6.03017,-5.41728 1.00502,0.41672 m -12.73034,0 v 1.66685 m 0.67001,-1.25015 1.67505,0.41672 m 2.01005,-0.83342 v 0.83342 m 6.03017,-0.83342 c -0.0975,0.20961 -0.31424,0.8352 -0.61508,1.23922 -0.74073,0.99425 -1.37288,1.39387 -2.04205,2.18968 -0.85832,1.02082 -1.17839,1.82999 -1.02797,3.23852 l 2.01005,-2.08356 -0.33502,0.83342 -0.335,0.41672 h -0.33501 l -0.335,0.4167 m 13.40036,-6.2507 v 0.4167 m -8.71023,0 h 1.00503 m -15.41043,6.25072 -1.00502,2.08357 1.00921,-5.81653 1.67087,-2.10104 m 15.07541,0 1.67503,1.25015 -2.01005,0.4167 v 0.41672 l 0.33502,0.41672 0.33499,0.41671 m -2.68006,-2.50028 c 0.21607,1.4574 0.21909,1.93584 -0.33501,3.33372 -0.1618,-0.88195 -0.30856,-1.24974 0.67001,-0.83344 m -11.05529,-2.08357 -0.33502,1.25014 m 18.0905,-1.25014 c 1.63986,2.85112 1.39362,4.85842 0.67001,6.66744 l -2.34506,-4.16715 -1.67505,1.66686 -1.67504,-0.83344 2.34605,1.76821 1.85328,1.61959 1.16081,3.27962 c 0.75411,-1.21113 1.1109,-1.6142 0.67003,-3.33369 m -26.80075,-6.25072 -2.34504,4.58385 m 19.43052,-4.58385 c -0.22345,2.53854 -1.54842,4.51052 -3.35009,6.25072 m 9.38026,-6.25072 1.00502,1.66685 m 3.35009,-1.66685 v 0.83342 l -0.33501,0.41672 m -21.44058,-0.83344 v 0.83344 m 10.05027,-0.83344 v 1.66687 h 1.00502 m 1.67506,-1.66687 v 0.41672 m -15.41042,5.4173 -1.34003,0.4167 c 0.4754,-2.42369 1.04371,-4.44659 2.34507,-5.834 m -0.67003,0.41672 0.67003,0.83343 m 6.03015,-0.83343 -0.335,1.25015 m 10.72028,-1.25015 0.67003,1.25015 m 1.67503,-1.25015 h 0.33502 m -24.79068,0.41671 0.33501,0.41672 m 10.72028,-0.41672 -0.67,0.83344 m 17.42046,-0.83344 v 0.41672 m -20.77056,0 -0.67001,1.66686 m 15.4104,-1.66686 0.67003,1.25014 M 134.31671,221.189 v 0.83342 m -3.6851,3.75041 c -1.00288,2.86188 -1.43821,4.67937 -3.01509,7.08415 -0.62813,-0.94481 -1.64466,-2.32393 -0.57005,-3.67637 0.62602,-0.78794 1.09531,-1.10733 1.53097,-2.18164 0.4025,-0.99257 0.59359,-1.91183 0.92704,-2.88694 0.35393,-1.03486 0.8052,-1.76099 1.46214,-2.50633 m 16.08044,0 -1.67506,2.91699 m 3.0151,-2.91699 c 0.25994,1.42893 0.94304,1.79512 2.01005,1.66686 m -10.05027,-0.41672 c -0.72195,-0.14499 -0.60508,-0.23655 -0.33501,-0.83342 m -2.68054,0.41672 h 1.00502 m 7.03519,0 -1.67505,2.08355 m 9.71527,-2.08355 -0.67001,0.83342 m -14.74041,-0.41672 c -1.32248,1.77955 -2.00379,2.75735 -3.35007,2.91699 l 0.67001,-0.4167 m 6.36516,-2.50029 c -0.41736,0.97336 -0.40161,0.9054 0.335,0.41672 m -3.01508,0 v 1.25013 l 1.34004,-0.83341 m -6.70018,0 -2.75654,4.83809 -0.71257,3.0796 -1.03196,2.47249 -0.85907,1.69453 m 8.37524,-12.08471 0.33499,0.41671 m 3.35009,-0.41671 h 0.67001 m 7.03519,0 c 0.84893,1.54204 2.31426,1.86837 3.68511,2.50029 l 0.33501,-2.50029 m -10.72029,0.41671 -1.00503,0.83344 m -12.06032,-0.41674 c -0.94976,1.24774 -2.02021,2.63389 -2.66261,4.16712 -0.59435,1.41845 -0.77312,2.33884 -0.35248,3.75046 l 1.00504,-0.83342 m 12.73033,-7.08416 c -1.69322,2.29573 -5.01759,3.48063 -6.70018,6.25072 l -1.34003,-1.25014 m -4.69012,-4.58384 -2.18226,5.00056 0.15917,4.51131 -1.66209,1.73941 v 0.4167 0.41672 0.41672 m 31.82587,-12.08472 0.67001,-0.4167 m -17.7554,0.8334 1.00502,-0.4167 m -14.74041,0.4167 -0.96476,4.16716 0.62976,5.00057 m 4.69011,-9.16773 -0.67001,2.91701 m 2.68006,-2.91701 v 0.83344 m 2.01007,-0.83344 -0.335,0.41674 m 32.49592,55.42295 c -6.65772,-6.36384 -3.29409,1.19801 -3.01509,4.58387 m -26.4657,-60.00682 0.335,2.08355 m 0.67001,-2.08355 v 0.83341 m 6.03016,-0.41671 c 1.09382,-0.25166 1.28282,-0.29902 2.34507,-0.4167 m 3.01507,0.4167 h -1.00502 l 4.0201,1.14444 3.01509,3.0227 c 0.56417,-1.81283 -0.0315,-2.76725 -1.34004,-4.58384 m -11.05529,0.4167 -5.02514,3.33372 m 17.08547,-2.50029 1.34002,-0.83343 m -22.78064,0.41671 0.33501,0.41672 m 1.00503,1.25014 1.34004,-1.66686 m -7.37021,0.41672 0.67001,0.83342 m 29.14581,-0.4167 v 9.16771 m -25.12569,-8.75101 v 0.83344 m 23.45064,-0.83344 -0.39632,3.73488 -1.88945,3.42181 -2.06935,5.34473 m -17.75548,-12.0847 -0.67003,0.83343 m -3.01507,1.25014 v -1.66685 m -0.67002,0.83343 -1.34005,2.08356 m 2.34506,-2.08356 0.67001,0.83342 m 0,9.16773 c 0.10381,-2.11929 1.45902,-4.33905 2.443,-6.25445 0.68012,-1.32381 1.40939,-2.01863 2.58216,-2.49656 m 18.09049,-0.41672 c -0.89581,2.10607 -3.6191,2.40466 -4.76617,4.61475 -0.95444,1.83904 -0.26667,5.38488 -0.25898,7.05325 m -16.41543,-11.25128 -1.00504,0.83342 m -7.7052,0 h 0.67001 m 29.48081,0 0.67002,0.83343 m -24.79067,-0.41671 0.67001,0.41671 m -3.68511,0 0.33503,1.66686 c 1.09209,-0.81489 1.48803,-0.9684 2.34505,-0.41672 m -1.67505,-1.25014 v 0.41672 m 12.06033,-0.41672 c 1.85453,0.20279 2.24855,1.29845 4.69013,0.83344 0.13165,1.57354 -0.44023,2.26672 -1.67505,3.33371 m 10.05028,-3.75043 0.67003,0.83342 m -29.81582,-0.4167 1.00502,0.83342 m 3.35009,-0.83342 0.33502,0.4167 0.67002,0.83344 m 1.67502,-1.25014 c -0.28769,1.35356 -0.21977,1.03974 -0.67001,2.08357 m -3.35009,-1.66687 -0.24381,0.71583 -0.0115,0.60174 c 0.53642,1.88059 1.98138,1.2899 2.32487,3.01486 0.17407,0.87422 -0.38354,2.40731 -0.39459,3.16843 l 1.005,-0.4167 m -2.34503,-6.66744 0.335,1.66687 c 1.15845,-0.46393 1.3018,-0.42094 2.34506,-0.41672 m -1.67505,-1.25015 v 0.83343 m 26.80073,-0.83343 c 0.28577,1.26998 0.36215,1.97893 1.00502,4.16715 l 0.33503,-3.33372 m 0,-0.83343 h 0.335 m -31.15586,0.41672 h 0.67003 m 17.08548,0 0.67001,0.83343 m 14.74041,-0.83343 v 0.83343 m -22.44562,-0.41672 v 0.41672 m 16.41544,0 c -0.98056,1.26477 -1.26331,1.94289 -0.335,3.75041 m -27.80577,-3.33369 c 0.52232,1.95221 1.17478,2.35313 2.34506,2.50028 v -1.25014 m 2.68008,-1.25014 v 0.83342 m 19.43052,0 1.34006,-0.83342 c 0.56682,0.70523 0.0234,0.0293 1.00502,1.25014 m 3.01511,-0.83344 c 0.12605,1.97423 0.12736,4.02575 0.15817,6.20292 0.0292,2.06419 0.37858,2.38601 0.84692,4.21493 0.86331,-1.405 1.84489,-4.39858 -0.33503,-2.91699 v 0 m -15.7454,-6.66742 h 1.67502 m -7.03511,0 v 0.83341 m -5.02514,0 v 0.41673 m 29.13096,35.41945 -0.79396,2.55654 -2.87705,0.77841 m 1.675,-38.33769 -0.67001,0.4167 m -26.80075,2.08358 c -0.0239,2.03019 -0.41784,2.63939 0.35293,4.502 0.36108,0.87261 0.89448,1.56391 1.19137,2.1951 0.51385,1.09256 0.60312,1.51983 0.80077,2.05389 -1.22795,0.40588 -1.64375,0.3067 -2.241,-0.28937 -0.88806,-0.8863 -1.52344,-2.61813 -2.22364,-4.00486 -0.76412,-1.5133 -0.6603,-3.701 -0.4484,-5.25976 0.10528,-0.77377 0.35602,-1.19256 0.55792,-1.69728 l 1.67504,1.25014 m 8.04025,-0.83344 0.67001,3.75043 m 19.43054,-3.75043 v 3.33373 m -29.48086,0 c 0.27555,1.59514 0.65959,1.53047 1.34004,1.66685 v 0 m 26.13072,-0.41671 -2.01005,2.08357 h 1.00502 m -4.0201,-1.66686 c -0.11615,2.62054 0.0132,3.4511 -1.00502,5.41729 l 0.33501,-0.83344 m -11.72489,-2.91699 c -0.38321,1.63422 -0.78714,2.37335 -2.01005,4.16713 m 9.04523,-4.16713 0.67002,2.91699 c 1.07519,-0.77684 1.42045,-0.81729 2.68008,-0.83342 m -18.76016,-1.66687 -0.67003,0.83344 m -2.01005,-0.41672 -0.33501,2.08357 h 2.01006 m 26.13072,-2.08357 c 0.32763,1.95939 -0.63217,5.29895 -0.33502,7.08413 l 0.46533,-0.32421 -0.63282,1.88691 -0.50253,0.52088 0.33501,-2.50028 m 2.34507,-6.25071 -1.00503,0.83343 m -23.78565,-0.83343 0.33499,2.08355 m 3.0151,-2.08355 c -1.01501,2.51125 -1.42097,3.19741 -3.35009,3.75043 m 17.75548,-2.917 0.67001,-0.41672 m 6.7002,0 v 5.834 m -2.01005,-5.41728 c -0.33067,1.30743 -0.16483,2.16565 1.00502,2.917 m -28.81079,-1.66688 0.48264,4.08505 1.47925,2.71617 1.68935,1.0172 2.71394,1.76602 -0.33501,0.4167 -0.33502,0.41674 -0.67003,-0.83344 m 4.69017,-9.58444 1.005,0.41674 m 12.73035,-0.41674 v 0.41674 m -11.05529,0 0.33501,1.25014 m 15.74542,0.41671 -0.67001,0.83342 m -21.7756,-0.41672 c 0.71846,1.51685 1.83508,2.51362 2.60249,2.37321 0.96698,-0.17754 1.24381,-1.23515 1.75264,-2.37321 m 4.69011,0.41672 h 0.33501 m 1.00503,1.25015 0.33501,0.83342 m 1.00503,-0.41672 c 2.03296,-0.35629 5.82749,-1.03678 6.36516,2.08358 v 0 m 0.33501,-2.50028 0.33502,0.4167 m -15.41041,0.41672 c 0.18142,0.13247 0.75656,0.28379 1.04777,0.99679 0.4223,1.03427 0.0351,1.73394 -0.36397,1.74143 -0.57868,0.0115 -1.04536,-1.18971 -1.35383,-1.9048 m 14.40538,-0.4167 -1.00502,2.08357 m 6.70019,-1.66687 c 1.30821,1.10555 1.39028,6.16406 1.331,8.75101 -0.0311,1.35266 -0.23217,2.35568 -0.28308,3.75043 -0.0694,1.90605 0.48274,2.88781 0.53968,4.58386 0.0382,1.13555 -0.3119,2.0198 -0.28105,2.78155 0.0348,0.85844 0.57319,1.29849 1.0385,1.80229 m -2.34523,-21.66914 c -0.70016,1.23015 -0.49615,0.90345 -1.34004,2.08359 l 0.67001,1.66685 c -0.31054,0.24337 -1.66164,1.00888 -1.80366,2.52613 -0.13099,1.39682 0.66464,2.43776 1.13365,3.30786 -1.82077,1.4735 -2.45125,2.22192 -3.35009,2.91701 l 0.2814,0.69924 c 0.15752,1.55018 -1.65393,2.07441 -1.95645,2.21775 -0.38826,2.05233 -1.16481,2.55738 -2.68006,2.91701 m -20.10052,-17.502 v 0.41671 m 20.43555,-0.41671 h 2.01007 m 4.69013,0 0.33499,2.917 m 2.01007,-2.50029 h 0.33501 m -27.13576,0.41672 -1.67503,2.50027 m 16.08043,-2.50027 h 0.33502 m -22.78083,20.41899 1.34002,-1.66687 -2.01005,-0.4167 m 6.03015,-17.9187 v 0.4167 m 23.78566,-0.4167 0.33501,0.8334 m 4.35511,-0.4167 0.67003,-0.4167 m -26.46537,0.4167 c 0.31981,0.54423 0.45066,1.62353 2.34507,0.4167 m 6.03016,-0.4167 c 0.42537,0.8301 0.74032,1.78647 1.50121,2.7649 0.4321,0.55548 2.37817,2.21152 2.83086,2.84949 0.43964,0.62007 0.7052,1.07513 0.91109,1.89771 0.20037,0.80009 0.15323,1.6527 0.2732,2.48737 0.26526,1.84397 0.51744,2.29236 1.85383,2.91867 -0.008,-1.72728 -0.27624,-2.71448 -1.67503,-3.33371 m 4.69012,-9.58443 h 0.33502 m 4.69013,2.50029 0.67001,-2.50029 m -27.13574,0.83344 v 0.41671 m 29.1458,-0.41671 h 1.00503 m -27.13574,0.41671 1.34004,2.50028 c 0.28921,-1.07928 0.31932,-0.56214 -0.33502,-0.83344 m 2.68008,-1.25014 c 0.32704,0.002 0.67856,-0.0957 1.07314,0.0621 2.23538,0.89469 2.71522,2.64947 4.59591,4.20965 1.35177,1.12136 2.31984,2.04397 2.70618,4.06254 m 13.40036,-8.751 0.67002,0.83344 -1.34004,-0.41672 m -27.47075,0.41672 0.0321,8.32804 0.97293,2.50651 0.0244,-3.33412 -0.0244,-7.08373 m 2.68008,-0.4167 0.33501,0.4167 m 2.68008,-0.4167 1.00502,1.66684 -2.34506,-0.4167 m 0.335,-0.83344 1.00504,1.25014 m 1.00502,-0.4167 c 1.55927,0.97553 2.40189,2.99992 3.35009,5.00057 m -6.70018,-5.00057 1.34003,2.50029 c -0.74264,0.52088 -1.06029,0.48837 -0.67002,2.08355 l 0.33502,-1.66685 m 0.67001,-2.91699 h 0.67003 m -4.35512,0.4167 v 0.91637 c 0.001,2.01356 0.13313,3.16035 0.26313,4.91765 0.0381,0.5138 -0.0636,1.54308 0.22075,2.40067 0.4045,1.22014 0.96764,1.43766 1.19116,1.76646 m 21.77559,-9.58443 3.01509,2.08357 -1.34004,0.83344 m 0.67001,-3.33373 h 0.67003 m -25.12569,0.41672 1.00504,2.50027 m 19.09551,-2.50027 0.67002,0.83343 1.34003,-0.83343 m -35.84584,16.66858 -2.34507,0.8334 0.9601,2.1015 3.395,7.89964 0.33503,-3.75042 2.34505,6.66743 m 13.40034,-30.00341 c -0.41173,0.76798 -0.5311,0.83341 0,0.83341 m -9.38026,-0.4167 h 0.335 m 28.81079,0 h 0.335 m -21.44057,0.4167 0.67003,1.66686 m 1.00504,-1.66686 -0.67003,0.83344 m 9.71525,-0.83344 -0.67001,2.08358 m 7.70521,-2.08358 v 1.66686 c 0.75611,-0.53088 0.80335,-0.48463 1.34003,-1.66686 m 5.36014,0 h 0.33502 m -27.80577,0.83344 c -0.13363,1.28723 0.15685,2.13275 0.80058,2.01689 l 0.53946,-0.35004 m 3.68512,-1.66685 1.67503,2.08357 m 1.34004,-1.66687 c 0.38141,1.00679 0.90597,1.78856 1.55504,2.86117 0.65063,1.07471 0.64915,1.85562 0.18071,3.0887 l -0.39571,0.71757 -2.34506,-3.75043 -0.33502,0.41672 v 0.41671 h 0.67001 m -5.69513,-3.33372 2.68006,1.25015 m 0,-1.25015 1.34004,0.41672 m 14.40539,-0.41672 -1.34003,3.75044 c -0.70219,-0.71467 -1.60035,-2.62698 -3.12158,-2.04856 l -0.56353,0.38169 c 1.10777,1.00679 1.41975,1.26473 2.68008,0.83344 m 3.68509,-2.91701 0.67002,0.83343 m -15.74543,-0.41671 v 0.83343 m 3.3501,-0.83343 v 1.66685 m 3.68509,-1.66685 1.34004,1.66685 -1.67504,2.08359 m 4.0201,-2.91701 c 1.55578,-0.38463 1.77856,0.31254 2.34507,0.83342 m 5.69515,-1.66685 -0.67003,2.08357 h -2.01005 m -17.08544,-1.66686 0.67001,0.83344 m 0.335,-0.41672 0.67003,0.83342 m 17.08545,-0.83342 h 0.67003 m 3.01508,0 -0.33502,0.83342 m -24.45566,-0.4167 h 0.67003 m 2.34506,0 0.67001,1.66685 m -7.03519,-0.83343 1.00503,-0.41672 m 2.68007,0 -0.33501,1.25015 c -1.47505,-0.66965 -2.14165,-0.52548 -2.01005,1.25014 l 1.34004,-1.66685 m 2.34508,-0.83344 c -0.0437,0.61216 -0.12687,1.19932 -0.26217,2.1015 -0.25079,1.67187 -1.42409,3.63417 -1.33681,4.63803 0.0982,1.12971 0.83798,2.04939 1.59898,3.26161 m 15.07539,-10.00114 0.67001,0.83344 m 4.02013,-0.41672 c -0.44354,3.58083 -2.91491,5.00265 -4.35511,5.00058 0.41507,-0.45506 0.84221,-1.28224 1.67505,-1.25015 m -18.42551,-2.917 0.67003,0.83344 m 3.35009,0.4167 -1.00505,1.66686 -1.34002,-1.66686 2.01005,-0.4167 m 1.00503,-0.41672 -0.67001,0.83342 m 1.34003,-0.4167 1.34004,-0.41672 m 7.03518,0 -1.77276,1.15886 -0.57231,0.0914 m 4.02012,-1.25014 v 1.25014 m 4.35512,-0.41672 0.67002,-0.83342 m -30.48584,4.58384 c 0.79748,-0.66131 0.18058,-0.14961 1.00502,-0.83341 m 6.36518,-3.33373 -1.34004,0.83344 m 1.67506,-0.41672 c 0.3795,1.10262 0.53475,1.64519 1.67503,2.50028 0.50306,-1.35014 0.39586,-1.05344 1.00504,-2.08356 m 0.67001,-0.41672 h 0.67003 m 1.34002,0 -0.67001,1.25015 m 21.77559,-1.25015 c 0.54542,3.7375 0.42614,5.18185 -0.335,7.08415 m -18.0905,-6.66743 -0.335,0.41671 m 13.06536,-0.41671 v 0.41671 m -20.10055,0 h 0.67001 m 21.77559,0 c 1.03117,1.17305 1.23855,1.00596 1.55914,2.91076 0.12357,0.73508 0.26298,1.46849 0.45093,2.08981 m 0,-5.00057 -0.67003,0.83344 m -28.14078,-0.41672 1.28609,2.8324 2.54405,3.41873 6.22016,15.418 m 0.33501,-21.66913 c -0.41174,0.76799 -0.5311,0.83342 0,0.83342 m 3.01507,-0.83342 -0.33501,2.50027 -1.00502,-2.08355 m 4.0201,-0.41672 0.67002,2.08357 2.01274,-1.40559 2.34238,-0.67798 m -4.02012,0 0.57697,0.60424 c 1.89809,1.53184 2.65924,0.15998 3.10813,-0.18752 m -19.0955,0 c 0.12373,0.2896 0.2315,0.8005 0.57705,1.23764 1.11447,1.40975 3.46053,3.70833 4.72761,5.84648 2.56423,4.32717 4.73341,9.05022 6.08564,14.16829 m -5.69514,-21.25241 0.67002,0.4167 -1.00505,1.25015 1.00505,-0.41671 m 19.43052,-1.25014 c -0.01,1.33266 0.0372,1.86894 0.67001,3.33369 m 4.02012,-3.33369 c 0.39363,2.69739 0.95846,4.99889 -1.00503,5.83398 m -32.83089,-5.41728 h 1.00502 m 11.39031,0 0.33501,1.25015 -1.00502,-0.41671 m -7.03521,-0.41673 0.67003,0.83344 m 12.39533,-0.83344 -0.67002,2.08358 1.34004,0.4167 m -9.38024,-2.08355 c 0.30722,1.80187 0.81051,2.04856 2.01005,2.91699 0.1361,-1.17847 0.14154,-1.99107 -1.34003,-2.08358 m 13.06534,3.33373 0.97522,-3.44958 0.69983,-0.71756 m 5.69515,2.50029 c -1.24757,-0.007 -2.00435,-0.63549 -2.01005,-2.50029 h 0.67001 m -29.14472,0.41671 1.00505,1.25014 h -0.67003 m 12.73033,-1.25014 c 1.56962,1.30639 2.21052,1.41059 4.0201,1.66684 m -15.07539,-1.25014 c 3.8979,5.96611 6.25413,12.17764 8.71023,19.16886 m -0.67001,-19.16886 v 0.83344 m 3.3501,-0.83344 c -0.2712,1.88148 0.30727,1.98982 1.15537,3.84711 0.24624,0.53924 0.40199,1.20098 0.51967,1.57018 0.98402,-0.73675 0.68349,-0.50798 1.67503,-1.25014 l -1.005,-2.91701 m 12.73034,0 c -1.25059,0.64135 -1.45025,-0.0987 -0.67003,-1.25014 v 0 m -31.15584,0.41674 h 1.00503 m 0.33517,0.4167 1.64886,1.80228 3.0404,4.86514 4.69102,11.668 m -6.03017,-18.33542 7.03519,13.33485 m 3.68509,-13.33485 h 0.67003 m 17.08545,0 -0.67002,0.83344 m -34.17094,0.4167 1.00504,-0.83344 m 13.73537,0 4.69015,6.66744 m -16.08042,-6.2507 c 0.66486,1.69268 1.85125,3.47371 3.35009,5.83398 m -1.00502,-5.83398 c 3.48026,5.0593 6.27947,11.05707 7.70521,17.50198 m 4.69012,-17.50198 c -0.76767,1.91729 -0.14829,3.0566 1.34005,5.00056 m 3.01506,-5.00056 c -0.66716,0.83008 -0.31697,0.54795 -1.00502,0.83341 m 5.36013,-0.41671 h 1.34004 m 0.67003,7.50085 c 0.0348,-3.14577 0.69146,-6.24279 2.68008,-7.50085 m -20.43557,0 0.67003,0.41671 m 4.69013,-0.41671 0.67001,0.83344 m -20.10055,-0.41673 0.67003,0.83344 m 4.0201,-0.83344 c 2.6401,3.2908 5.30268,7.66589 7.04938,12.08472 0.62015,1.56892 1.17961,2.97574 1.66086,4.58385 m 7.37021,-16.66857 1.34002,2.08358 m 12.39535,-2.08358 h -0.67003 m -30.15083,0.41673 0.67004,0.41671 m 10.72028,-0.41671 6.36518,16.25184 m 2.68006,-16.25184 -0.67001,0.83341 m 3.35009,-0.83341 v 0.83341 m 9.38025,-0.83341 c -1.77084,1.5485 -2.15411,4.53258 -2.34506,7.08413 m 4.02012,-7.08413 -1.00503,0.83341 m 2.01005,-0.83341 -0.67003,0.83341 m -36.51599,-0.4167 1.00504,0.83342 m 1.67505,-0.83342 5.62256,10.41784 2.08264,5.41729 m 16.75047,-15.83513 v 1.25014 m 5.36013,-1.25014 -1.00504,3.75041 m 2.6801,-3.75041 0.67001,1.66684 m -36.516,-0.4167 2.47917,2.0869 3.44237,7.91424 1.44867,4.58385 m -10.7203,-15.00171 v 1.25014 m 26.13072,-1.25014 0.67001,0.83342 m -19.43054,-0.4167 6.3652,14.58499 m 7.37019,-14.58499 0.33499,0.4167 m 0.67003,-0.4167 1.00504,1.25013 m 11.39029,-1.25013 -1.69682,2.00356 -2.38628,2.00023 -1.61205,2.66362 m 17.08548,-6.66741 c 0,2.11148 0.25225,5.13807 0.33499,8.75099 m -42.21113,-8.33424 c 0.53273,1.77939 1.28301,3.39331 2.23662,5.834 1.07656,2.75574 1.98459,5.61897 3.12352,8.33429 m -3.01509,-14.16829 6.03018,14.16829 m 15.07539,-14.16829 c 1.16837,2.60073 2.15969,2.23651 3.6851,2.50029 m -28.81079,-2.08357 c 0.26795,1.53059 0.77248,2.46487 1.67507,5.00058 m -1.00504,-5.00058 1.00504,2.50029 m 26.46571,-2.50029 h 0.33502 m 8.04021,0 -0.33501,2.50029 m 1.00502,-2.50029 -0.33499,4.58386 m 2.01005,-4.58386 c -0.39733,2.19691 -0.45529,4.57304 0,7.08413 m 1.00502,-7.08413 v 2.917 m -15.74543,-2.50029 0.67002,0.41672 m -28.14078,0 h 1.00504 m 1.34002,0 c 0.7792,2.0269 1.68003,4.02504 2.6801,6.66742 m 18.09048,-6.66742 1.67505,2.91701 m -0.67001,-2.91701 1.34003,0.41672 v 0.83342 m 18.42549,-1.25014 v 0.41672 m 1.00505,-0.41672 v 6.2507 m -15.41044,-5.41728 0.67002,2.08359 m 19.76556,-2.08359 0.19697,2.09316 1.71122,3.79044 1.4419,6.20112 m -2.68008,-12.08472 v 1.66687 m -25.12569,-1.25015 3.52828,5.834 2.8369,5.834 m -4.35513,-11.668 1.34004,3.75042 m 18.76051,-3.75042 0.67002,4.58386 m -18.76052,-4.16714 v 2.50029 m 24.12066,-1.66686 h 0.33502 m -39.53109,-0.41672 3.01509,5.41728 m 9.38027,-5.41728 1.00501,1.25014 m 6.03017,-1.25014 -0.33502,1.66686 m 19.09553,-1.66686 0.9913,2.9191 2.35879,7.91547 m -50.25137,-10.41785 1.00502,2.917 m 21.44059,-2.917 h 0.67002 m 8.37523,0 0.67002,5.41728 m 3.01508,-5.41728 v 1.66686 m 3.01507,-1.66686 v 10.00113 m -43.8862,-9.16771 c 1.00458,0.21836 0.99387,0.23795 2.01007,0.41672 l 0.33499,-0.41672 m 40.53613,0 v 2.08358 m -12.73036,-1.66686 1.67506,0.41672 0.33499,0.4167 c 0.2135,3.20411 1.82145,5.54354 1.34004,8.33429 -0.95218,-2.77114 -1.59109,-5.1256 -3.01509,-7.50085 l -0.67001,0.83341 0.33501,0.41672 h 0.67003 m 1.67504,-2.91699 -0.33502,0.41672 m 22.11062,-0.41672 c 0.1829,0.68257 -0.20739,0.7805 0.67003,0.41672 m -53.26705,-3e-5 c 0.10133,1.70603 -7e-5,2.42693 1.34002,3.75043 l -0.67001,0.83342 -0.33502,-1.25016 m 23.45064,-3.33369 3.35009,8.75099 m 7.03519,-8.75099 v 0.4167 m 16.75046,-0.4167 2.34507,8.75099 m -15.74544,-8.33429 c -0.23685,1.1689 0.48711,4.95474 -0.67003,4.16715 m 1.34006,-4.16715 v 1.66685 m -4.69014,5.41729 -0.67002,-6.66742 1.00503,2.08357 m 10.3853,-2.08357 v 1.25013 m 8.71022,-1.25013 2.68008,7.91757 m -55.27651,-7.50085 h 0.67002 l 0.33501,1.66685 m 2.34506,-1.66685 0.33502,0.4167 m 30.48583,-0.4167 v 0.83341 m 14.74041,-0.83341 0.335,1.25015 m 5.02514,-1.25015 c 0.27973,2.38527 1.33669,4.55761 2.01005,7.50085 m -58.29159,-7.08415 2.01005,5.00058 m 27.47074,-5.00058 0.33502,0.41671 m 3.01509,-0.41671 v 0.83345 m 7.7052,-0.83345 v 2.50029 m -13.06536,-2.08358 3.01508,6.66744 m 12.39535,-6.66744 v 1.66688 m -40.5361,-1.25014 v 0.4167 m 5.02512,-0.4167 0.67003,1.66684 m 40.5361,-1.66684 v 1.66684 m 2.68008,-1.66684 0.67002,6.2507 m -10.72029,-5.834 h 0.335 m -11.05531,0.4167 0.33501,0.41674 m 5.69515,-0.41674 0.67003,1.25016 m 12.73035,-1.25016 v 2.08359 m -32.49588,-1.66685 0.33499,0.4167 m 3.0151,-0.4167 1.00504,5.00056 m 24.45564,-5.00056 0.33502,5.00056 m 1.00502,-5.00056 v 1.66685 m -39.53107,-1.25015 1.34004,4.58386 m 8.37521,-4.58386 1.00505,4.58386 m 22.78061,-4.58386 -0.67001,1.25015 m -36.18099,1.66684 -1.34004,-2.50027 c 0.18413,1.38807 0.41176,2.25025 1.00503,4.16714 m 31.82587,-4.16714 v 0.41672 m 9.04524,-0.41672 -0.335,0.41672 m -44.89123,0 c 0.70325,1.52934 0.75195,2.18691 0.33502,3.75042 m 31.15582,-3.75042 0.33503,0.83341 m 8.37522,-0.83341 -0.335,3.75042 m 9.04524,-3.75042 0.33502,2.50027 m -10.38528,-2.08356 0.33499,3.33371 m -36.51599,-2.91701 v 0.41674 m 34.84094,-0.41674 v 0.83344 m 5.36016,-0.83344 v 0.41674 m 2.34506,-0.41674 v 2.91701 m -39.86609,-2.50027 c 0.76861,1.12761 0.8359,1.19096 1.34004,2.50027 m 29.14579,-2.50027 0.33502,2.50027 m 11.72532,-2.50027 0.33501,2.50027 m 2.01005,-2.50027 0.335,2.50027 m -9.71525,-2.08357 v 2.08357 m -38.52605,-1.25015 v 0.41671 m 1.00502,-0.41671 v 1.25015 m 34.50593,-1.25015 v 0.83343 m -36.18096,-0.41672 0.33499,0.83344 m 3.0151,-0.41672 0.33499,0.41672 m 36.516,-0.41672 v 0.41672 m 1.00503,-0.41672 v 0.41672 m -42.88117,0 h 0.33502"
       id="path10969"
       sodipodi:nodetypes="cccccccccccccccccccccccccscccccccccccccccccccccccscccccccccccccccccccccccccccccccccccccccccccccccccccccccccccccccccccccccccccsssccccccccccccccccccccccccccccccccccccscccccccccccccccccccccccccccccccccccccccccccccccccccccccccccccccccsccscccccccccccccccccccccccccccccscccccccccccccccccccccccccccccccscscccccccccccccsscssscccccccscccccccccccccccccccccccccccccccccccccccccccccccccccccccccccsccccscccccccssccccccccccccccccccccccccccccccccccscsccccccccccccccccsccccccccccccccccccccccccccsscccccccccccccccccccccccccccccccccccccccccccccccccccccccccccccccccccccccccccccccccccccccccssccccccccccccccccccccccccccccccccccccccccccccccccccccccccccccccccssccccccccccccccccccccccccccccccccccccccsccccsccccccccccccccccccccccccccccccccccccscccccccccccccccccccccccccccccccccccccccccccccccccccccccccccccccccccccccccccccccccccccccccccccccccccccccccccccccccccccccccccccccccccccccccccccccccccccccccccccccccccccccccccccccccccccccccccccccccccccccccccccccccccccccccccccccccccccccccccccccccccccccccccccccccccccccccc" /><g
       inkscape:label="Hershey Text"
       style="fill:none;stroke:#000000;stroke-linecap:round;stroke-linejoin:round"
       id="g14078"
       transform="matrix(1.3380768,0,0,1.3380768,-45.298404,-260.65508)"><g
         transform="translate(106.544,203.981)"
         id="g14042"><path
           d="M 119.822,714.524 382.718,13.442 645.627,714.524 m -569.627,0 h 87.6318 m 438.1852,0 h 87.6338 m -306.7318,0 262.909,-701.082 262.908,701.082 m -569.626,0 h 87.6299 m 438.1751,0 h 87.6436"
           style="stroke-width:0.5536in"
           transform="scale(0.0049389,-0.0049389)"
           id="path13990" /><path
           d="m 228.365,13.4424 c 88.9863,0 153.366,82.207 153.366,175.266 0,93.0674 -64.3799,175.277 -153.366,175.277 C 139.3923,363.9854 75,281.7754 75,188.7084 75,95.6498 139.3926,13.4424 228.365,13.4424"
           style="stroke-width:0.5536in"
           transform="matrix(0.0049389,0,0,-0.0049389,5.07719,0)"
           id="path13992" /><path
           d="m 76,276.34 87.6318,87.6455 V 57.2535 L 207.455,13.443 m -43.823,262.897 87.6318,87.6455 h 87.6465"
           style="stroke-width:0.5536in"
           transform="matrix(0.0049389,0,0,-0.0049389,7.33427,0)"
           id="path13994" /><path
           d="m 76,626.882 87.6318,87.6426 V 57.2536 L 207.455,13.4431 M 163.632,276.34 295.087,363.9855 c 53.3994,14.9902 102.636,-34.2441 87.6318,-87.6455 -10.4844,-37.3613 -49.5156,-55.0713 -87.6318,-65.7217 -42.9043,-11.9912 -86.9736,-19.334 -131.455,-21.9102 z m 87.632,-87.632 c 22.8408,-47.7412 52.3545,-92.0117 87.6465,-131.455 13.7783,-15.4033 28.4053,-30.0303 43.8086,-43.8105"
           style="stroke-width:0.5536in"
           transform="matrix(0.0049389,0,0,-0.0049389,9.38391,0)"
           id="path13996" /><path
           d="M 295.099,363.985 V 298.2506 C 272.4242,337.6481 230.9789,362.5133 185.555,363.985 129.2708,365.79555 79.143,327.5045 84.767,276.3395 96.7231,167.7025 275.424,216.4655 303.855,122.9855 325.3306,52.4162 247.4868,-11.7875 163.644,13.4415 121.5766,26.0919 88.6635,59.005 76.0004,101.0733"
           style="stroke-width:0.5536in"
           transform="matrix(0.0049389,0,0,-0.0049389,11.6607,0)"
           id="path13998" /><path
           d="m 76,626.882 87.6318,87.6426 V 57.2536 L 207.455,13.4431 M 163.632,276.34 295.087,363.9855 c 72.5938,0 131.453,-58.8613 131.453,-131.455 V 57.2535 L 470.3642,13.443"
           style="stroke-width:0.5536in"
           transform="matrix(0.0049389,0,0,-0.0049389,13.5523,0)"
           id="path14000" /><path
           d="m 228.365,13.4424 c 88.9863,0 153.366,82.207 153.366,175.266 0,93.0674 -64.3799,175.277 -153.366,175.277 C 139.3923,363.9854 75,281.7754 75,188.7084 75,95.6498 139.3926,13.4424 228.365,13.4424"
           style="stroke-width:0.5536in"
           transform="matrix(0.0049389,0,0,-0.0049389,16.249,0)"
           id="path14002" /><path
           d="m 76,276.34 87.6318,87.6455 v -657.273 l 43.8232,-43.8223 M 163.632,276.34 295.087,363.9855 c 69.6621,0 122.322,-59.9932 131.453,-131.455 C 440.5214,123.0925 361.1015,23.8215 251.276,13.4425 L 163.6315,57.253"
           style="stroke-width:0.5536in"
           transform="matrix(0.0049389,0,0,-0.0049389,18.5061,0)"
           id="path14004" /><path
           d="m 120.799,-4.14844 v 716.72 l 358.354,-716.72 358.368,716.72 v -716.72 M 76,712.571 h 89.585 m 627.136,0 h 89.5859 M 76,-4.14844 h 89.585 m 627.136,0 h 89.5859"
           style="stroke-width:0.5536in"
           transform="matrix(0.0049389,0,0,-0.0049389,25.0205,0)"
           id="path14006" /><path
           d="M 338.919,57.2529 C 296.003,5.8183 223.055,-8.7627 163.653,22.1982 c -59.7559,31.1602 -88.5381,98.3291 -87.6328,166.51 1.12988,85.3369 50.4941,165.449 131.455,175.277 59.4258,7.21094 115.251,-30.0078 131.443,-87.6455 M 76.0205,188.708 l 289.197,96.3984 z"
           style="stroke-width:0.5536in"
           transform="matrix(0.0049389,0,0,-0.0049389,29.7519,0)"
           id="path14008" /><path
           d="M 76,-201.727 276.776,-0.949 v -803.107 c 0,-110.883 89.8916,-200.774 200.777,-200.774 l 200.776,100.387 M 276.776,-201.727 H 577.94"
           style="stroke-width:0.5536in"
           transform="matrix(0.0049389,0,0,-0.0049389,31.93,0)"
           id="path14010" /><path
           d="m 79.5801,298.251 109.545,65.7344 c 45.6465,0 78.5117,-43.8252 65.7324,-87.6455 V 79.1649 l 21.9121,-65.7227 52.5781,17.5225 M 254.857,166.797 C 218.0611,165.21985 181.442,160.8302 145.315,153.6534 118.3433,148.29891 89.9966,139.2013 79.5796,114.2188 71.7798,95.5098 77.63917,74.669 88.34815,57.253 c 11.6016,-18.8623 28.3125,-34.0654 48.1992,-43.8105 l 118.31,65.7227"
           style="stroke-width:0.5536in"
           transform="matrix(0.0049389,0,0,-0.0049389,35.6539,0)"
           id="path14012" /><path
           d="m 76,276.34 87.6318,87.6455 v -657.273 l 43.8232,-43.8223 M 163.632,276.34 295.087,363.9855 c 69.6621,0 122.322,-59.9932 131.453,-131.455 C 440.5214,123.0925 361.1015,23.8215 251.276,13.4425 L 163.6315,57.253"
           style="stroke-width:0.5536in"
           transform="matrix(0.0049389,0,0,-0.0049389,37.6542,0)"
           id="path14014" /><path
           d="m 228.365,13.4424 c 88.9863,0 153.366,82.207 153.366,175.266 0,93.0674 -64.3799,175.277 -153.366,175.277 C 139.3923,363.9854 75,281.7754 75,188.7084 75,95.6498 139.3926,13.4424 228.365,13.4424"
           style="stroke-width:0.5536in"
           transform="matrix(0.0049389,0,0,-0.0049389,40.1434,0)"
           id="path14016" /><path
           d="M 295.099,363.985 V 298.2506 C 272.4242,337.6481 230.9789,362.5133 185.555,363.985 129.2708,365.79555 79.143,327.5045 84.767,276.3395 96.7231,167.7025 275.424,216.4655 303.855,122.9855 325.3306,52.4162 247.4868,-11.7875 163.644,13.4415 121.5766,26.0919 88.6635,59.005 76.0004,101.0733"
           style="stroke-width:0.5536in"
           transform="matrix(0.0049389,0,0,-0.0049389,42.4005,0)"
           id="path14018" /><path
           d="M 76,-201.727 276.776,-0.949 v -803.107 c 0,-110.883 89.8916,-200.774 200.777,-200.774 l 200.776,100.387 M 276.776,-201.727 H 577.94"
           style="stroke-width:0.5536in"
           transform="matrix(0.0049389,0,0,-0.0049389,44.2921,0)"
           id="path14020" /><path
           d="M 546.357,622.976 C 490.9566,674.3744 420.045,705.8998 344.77,712.5717 209.349,724.5756 84.143,640.4242 98.405,521.4447 126.9411,283.1887 566.657,417.2327 591.144,175.0217 605.101,37.0477 441.25,-46.7723 277.577,-4.1483 201.994,15.5265 132.637,54.0519 76,107.8297 M 591.145,667.773 546.3579,622.9751 v -89.5869"
           style="stroke-width:0.5536in"
           transform="matrix(0.0049389,0,0,-0.0049389,52.0412,0)"
           id="path14022" /><path
           d="m 76,276.34 87.6318,87.6455 V 57.2535 L 207.455,13.443 m -43.823,481.995 v 87.6318"
           style="stroke-width:0.5536in"
           transform="matrix(0.0049389,0,0,-0.0049389,55.3404,0)"
           id="path14024" /><path
           d="m 76,276.34 87.6318,87.6455 V 57.2535 L 207.455,13.443 m -43.823,262.897 131.455,87.6455 c 72.6055,0 131.453,-58.8613 131.453,-131.455 V 57.2535 L 470.3642,13.443"
           style="stroke-width:0.5536in"
           transform="matrix(0.0049389,0,0,-0.0049389,56.7381,0)"
           id="path14026" /><path
           d="m 160.59,101.074 c -45.1992,27.6787 -70.6982,78.6777 -65.7207,131.456 6.53125,69.417 61.9082,123.923 131.454,131.455 105.719,11.4355 188.702,-83.8682 153.354,-175.277 -20.1709,-52.1553 -75.6289,-77.1729 -131.455,-87.6338 -44.916,-8.4248 -92.5273,-25.8398 -87.6318,-65.7324 4.36621,-35.6201 47.458,-45.3975 87.6318,-43.8096 83.2432,3.27148 175.264,2.80078 219.1,-65.7344 66.1553,-103.459 -28.4902,-237.03 -175.277,-262.908 -75.7461,-13.3428 -157.46,2.2373 -197.175,65.7344 -25.1592,40.209 -25.1592,91.2441 0,131.453 l 65.7207,109.545 m 179.652,350.5378 83.2559,43.8252"
           style="stroke-width:0.5536in"
           transform="matrix(0.0049389,0,0,-0.0049389,59.4347,0)"
           id="path14028" /><path
           d="m 76,626.882 87.6318,87.6426 V 57.2536 l 43.8125,-43.8105"
           style="stroke-width:0.5536in"
           transform="matrix(0.0049389,0,0,-0.0049389,62.2252,0)"
           id="path14030" /><path
           d="M 338.919,57.2529 C 296.003,5.8183 223.055,-8.7627 163.653,22.1982 c -59.7559,31.1602 -88.5381,98.3291 -87.6328,166.51 1.12988,85.3369 50.4941,165.449 131.455,175.277 59.4258,7.21094 115.251,-30.0078 131.443,-87.6455 M 76.0205,188.708 l 289.197,96.3984 z"
           style="stroke-width:0.5536in"
           transform="matrix(0.0049389,0,0,-0.0049389,63.6229,0)"
           id="path14032" /><path
           d="m 120.799,-4.14844 v 716.72 m 0,-716.72 H 568.751 M 76,712.571 h 89.5967 M 568.751,-4.14844 l 44.7988,89.585 M 76,-4.14844 h 44.7988"
           style="stroke-width:0.5536in"
           transform="matrix(0.0049389,0,0,-0.0049389,69.8262,0)"
           id="path14034" /><path
           d="m 76,276.34 87.6318,87.6455 V 57.2535 L 207.455,13.443 m -43.823,481.995 v 87.6318"
           style="stroke-width:0.5536in"
           transform="matrix(0.0049389,0,0,-0.0049389,73.234,0)"
           id="path14036" /><path
           d="m 76,276.34 87.6318,87.6455 V 57.2535 L 207.455,13.443 m -43.823,262.897 131.455,87.6455 c 72.6055,0 131.453,-58.8613 131.453,-131.455 V 57.2535 L 470.3642,13.443"
           style="stroke-width:0.5536in"
           transform="matrix(0.0049389,0,0,-0.0049389,74.6317,0)"
           id="path14038" /><path
           d="M 338.919,57.2529 C 296.003,5.8183 223.055,-8.7627 163.653,22.1982 c -59.7559,31.1602 -88.5381,98.3291 -87.6328,166.51 1.12988,85.3369 50.4941,165.449 131.455,175.277 59.4258,7.21094 115.251,-30.0078 131.443,-87.6455 M 76.0205,188.708 l 289.197,96.3984 z"
           style="stroke-width:0.5536in"
           transform="matrix(0.0049389,0,0,-0.0049389,77.3284,0)"
           id="path14040" /></g><g
         transform="translate(106.544,210.155)"
         id="g14050"><path
           d="m 746.934,354.206 c 0,193.974 -146.209,358.365 -335.972,358.365 C 221.212,712.571 75,548.179 75,354.206 75,160.229 221.212,-4.148 410.962,-4.148 c 189.763,0 335.972,164.378 335.972,358.354"
           style="stroke-width:0.5536in"
           transform="scale(0.0049389,-0.0049389)"
           id="path14044" /><path
           d="M 295.099,363.985 V 298.2506 C 272.4242,337.6481 230.9789,362.5133 185.555,363.985 129.2708,365.79555 79.143,327.5045 84.767,276.3395 96.7231,167.7025 275.424,216.4655 303.855,122.9855 325.3306,52.4162 247.4868,-11.7875 163.644,13.4415 121.5766,26.0919 88.6635,59.005 76.0004,101.0733"
           style="stroke-width:0.5536in"
           transform="matrix(0.0049389,0,0,-0.0049389,4.05978,0)"
           id="path14046" /><path
           d="m 76,276.34 87.6318,87.6455 v -657.273 l 43.8232,-43.8223 M 163.632,276.34 295.087,363.9855 c 69.6621,0 122.322,-59.9932 131.453,-131.455 C 440.5214,123.0925 361.1015,23.8215 251.276,13.4425 L 163.6315,57.253"
           style="stroke-width:0.5536in"
           transform="matrix(0.0049389,0,0,-0.0049389,5.95137,0)"
           id="path14048" /></g><g
         transform="translate(106.544,216.329)"
         id="g14058"><path
           d="M 338.919,57.2529 C 296.003,5.8183 223.055,-8.7627 163.653,22.1982 c -59.7559,31.1602 -88.5381,98.3291 -87.6328,166.51 1.12988,85.3369 50.4941,165.449 131.455,175.277 59.4258,7.21094 115.251,-30.0078 131.443,-87.6455 M 76.0205,188.708 l 289.197,96.3984 z"
           style="stroke-width:0.5536in"
           transform="scale(0.0049389,-0.0049389)"
           id="path14052" /><path
           d="m 76,276.34 87.6318,87.6455 V 57.2535 L 207.455,13.443 m -43.823,262.897 87.6318,87.6455 h 87.6465"
           style="stroke-width:0.5536in"
           transform="matrix(0.0049389,0,0,-0.0049389,2.17805,0)"
           id="path14054" /><path
           d="m 160.59,101.074 c -45.1992,27.6787 -70.6982,78.6777 -65.7207,131.456 6.53125,69.417 61.9082,123.923 131.454,131.455 105.719,11.4355 188.702,-83.8682 153.354,-175.277 -20.1709,-52.1553 -75.6289,-77.1729 -131.455,-87.6338 -44.916,-8.4248 -92.5273,-25.8398 -87.6318,-65.7324 4.36621,-35.6201 47.458,-45.3975 87.6318,-43.8096 83.2432,3.27148 175.264,2.80078 219.1,-65.7344 66.1553,-103.459 -28.4902,-237.03 -175.277,-262.908 -75.7461,-13.3428 -157.46,2.2373 -197.175,65.7344 -25.1592,40.209 -25.1592,91.2441 0,131.453 l 65.7207,109.545 m 179.652,350.5378 83.2559,43.8252"
           style="stroke-width:0.5536in"
           transform="matrix(0.0049389,0,0,-0.0049389,4.2277,0)"
           id="path14056" /></g><g
         transform="translate(106.544,222.502)"
         id="g14076"><path
           d="m 120.799,-4.14844 v 716.72 m 0,-716.72 H 568.751 M 76,712.571 h 89.5967 M 568.751,-4.14844 l 44.7988,89.585 M 76,-4.14844 h 44.7988"
           style="stroke-width:0.5536in"
           transform="scale(0.0049389,-0.0049389)"
           id="path14060" /><path
           d="m 79.5801,298.251 109.545,65.7344 c 45.6465,0 78.5117,-43.8252 65.7324,-87.6455 V 79.1649 l 21.9121,-65.7227 52.5781,17.5225 M 254.857,166.797 C 218.0611,165.21985 181.442,160.8302 145.315,153.6534 118.3433,148.29891 89.9966,139.2013 79.5796,114.2188 71.7798,95.5098 77.63917,74.669 88.34815,57.253 c 11.6016,-18.8623 28.3125,-34.0654 48.1992,-43.8105 l 118.31,65.7227"
           style="stroke-width:0.5536in"
           transform="matrix(0.0049389,0,0,-0.0049389,3.40784,0)"
           id="path14062" /><path
           d="m 680.742,667.773 -22.3936,-44.7979 v -89.5869 m 6e-4,89.5878 C 597.8998,680.3881 517.739,712.4545 434.368,712.5717 237.062,712.84221 77.673,552.1577 76.014,354.2067 74.4847,172.1277 209.079,17.3267 389.58,-4.1473 488.039,-15.869 586.602,16.9845 658.35,85.4377"
           style="stroke-width:0.5536in"
           transform="matrix(0.0049389,0,0,-0.0049389,9.4333,0)"
           id="path14064" /><path
           d="m 79.5801,298.251 109.545,65.7344 c 45.6465,0 78.5117,-43.8252 65.7324,-87.6455 V 79.1649 l 21.9121,-65.7227 52.5781,17.5225 M 254.857,166.797 C 218.0611,165.21985 181.442,160.8302 145.315,153.6534 118.3433,148.29891 89.9966,139.2013 79.5796,114.2188 71.7798,95.5098 77.63917,74.669 88.34815,57.253 c 11.6016,-18.8623 28.3125,-34.0654 48.1992,-43.8105 l 118.31,65.7227"
           style="stroke-width:0.5536in"
           transform="matrix(0.0049389,0,0,-0.0049389,13.172,0)"
           id="path14066" /><path
           d="m 76,276.34 87.6318,87.6455 V 57.2535 L 207.455,13.443 m -43.823,262.897 131.455,87.6455 c 72.5938,0 131.453,-58.8613 131.453,-131.455 V 57.2535 L 470.3515,13.443 M 426.54,276.34 557.996,363.9855 c 72.5938,0 131.455,-58.8613 131.455,-131.455 V 57.2535 L 733.2596,13.443"
           style="stroke-width:0.5536in"
           transform="matrix(0.0049389,0,0,-0.0049389,15.1723,0)"
           id="path14068" /><path
           d="m 76,626.882 87.6436,87.6426 V 13.4426 m 4e-4,262.8974 131.455,87.6455 c 69.6504,0 122.322,-59.9932 131.454,-131.455 13.9805,-109.438 -65.4385,-208.709 -175.276,-219.088 h -87.6328"
           style="stroke-width:0.5536in"
           transform="matrix(0.0049389,0,0,-0.0049389,19.1679,0)"
           id="path14070" /><path
           d="m 76,276.34 87.6318,87.6455 V 57.2535 L 207.455,13.443 m -43.823,262.897 87.6318,87.6455 h 87.6465"
           style="stroke-width:0.5536in"
           transform="matrix(0.0049389,0,0,-0.0049389,21.6571,0)"
           id="path14072" /><path
           d="M 338.919,57.2529 C 296.003,5.8183 223.055,-8.7627 163.653,22.1982 c -59.7559,31.1602 -88.5381,98.3291 -87.6328,166.51 1.12988,85.3369 50.4941,165.449 131.455,175.277 59.4258,7.21094 115.251,-30.0078 131.443,-87.6455 M 76.0205,188.708 l 289.197,96.3984 z"
           style="stroke-width:0.5536in"
           transform="matrix(0.0049389,0,0,-0.0049389,23.7067,0)"
           id="path14074" /></g></g></g></svg>
